<svg xmlns="http://www.w3.org/2000/svg" viewBox="0 0 1206 1092.53"><defs><style>.cls-1{fill:#8988c2;}.cls-2{fill:#f5cdb0;}.cls-3{fill:#efbd9c;}.cls-4{fill:#43a1d5;}.cls-5{fill:#48437d;}.cls-6{fill:#f3a194;}.cls-7{fill:none;stroke:#16172f;stroke-linecap:round;stroke-linejoin:round;stroke-width:10.11px;}.cls-8{fill:#d8bfaf;}.cls-9{fill:#dadada;}.cls-10{fill:#f6f6f6;opacity:0.7;}.cls-11{fill:#f9b233;}.cls-12{fill:#4c6354;}.cls-13{fill:#be1622;}</style></defs><title>bockbig</title><g id="Ebene_2" data-name="Ebene 2"><g id="Ebene_2-2" data-name="Ebene 2"><rect class="cls-1" y="261" width="1206" height="702"/><rect class="cls-2" x="317.26" y="164.87" width="100.33" height="401.32"/><rect class="cls-3" x="549.36" y="290.03" width="84.71" height="295.88" transform="translate(1029.68 -153.74) rotate(90)"/><path class="cls-4" d="M442.76,406.25a101.93,101.93,0,0,0-45-10.45H326.23c-56.65,0-103,46.34-103,103V583h57.94V947.39H442.76V406.25Z"/><path class="cls-5" d="M317.82,395.8H492.63a0,0,0,0,1,0,0V947.39a0,0,0,0,1,0,0H317.82A121.92,121.92,0,0,1,195.9,825.47V517.72A121.92,121.92,0,0,1,317.82,395.8Z"/><rect class="cls-3" x="196.48" y="581.71" width="84.71" height="364.39"/><path class="cls-2" d="M317.26,407.43c0,27.93,50.58,136.49,50.58,136.49s50.57-108.56,50.57-136.49a50.58,50.58,0,1,0-101.15,0Z"/><path class="cls-5" d="M307,100.2H419.27A83.79,83.79,0,0,1,503.06,184v60.68a47.49,47.49,0,0,1-47.49,47.49H270.73a47.49,47.49,0,0,1-47.49-47.49V184A83.79,83.79,0,0,1,307,100.2Z"/><path class="cls-2" d="M331.6,114.8h65.17a87.76,87.76,0,0,1,87.76,87.76V238A117.53,117.53,0,0,1,367,355.5h-5.64A117.53,117.53,0,0,1,243.84,238V202.56A87.76,87.76,0,0,1,331.6,114.8Z"/><polygon class="cls-2" points="411.82 199.14 411.82 141.19 439.4 199.14 425.61 248.17 411.82 199.14"/><path class="cls-6" d="M414.78,295.91c0,21.61-22.65,39.13-50.59,39.13s-50.6-17.52-50.6-39.13"/><path class="cls-7" d="M315,241.84a10.64,10.64,0,1,1,21.28,0"/><path class="cls-7" d="M401.72,241.84a10.64,10.64,0,1,1,21.28,0"/><polygon class="cls-5" points="364.19 177.48 484.53 177.48 424.36 189.81 364.19 202.13 304.01 189.81 243.84 177.48 364.19 177.48"/><rect class="cls-5" x="223.24" y="139.82" width="279.82" height="38.07"/><path class="cls-1" d="M223.24,139.91a139.91,139.91,0,0,1,279.82,0"/><rect class="cls-5" x="317.04" y="69.96" width="97.86" height="97.86" rx="47.49"/><rect class="cls-1" x="294.24" y="122.73" width="143.47" height="17.18"/><rect class="cls-2" x="613.32" y="217.91" width="100.33" height="401.32"/><rect class="cls-5" x="760.53" y="147.61" width="304.47" height="631.85" rx="47.49"/><rect class="cls-8" x="847.32" y="340.46" width="84.71" height="295.88" transform="translate(1378.08 -401.27) rotate(90)"/><rect class="cls-2" x="877.62" y="301.38" width="71.36" height="285.44"/><path class="cls-2" d="M886.88,187.21h52.83A87.76,87.76,0,0,1,1027.48,275v26.5A114.09,114.09,0,0,1,913.38,415.56h-.17A114.09,114.09,0,0,1,799.12,301.47V275a87.76,87.76,0,0,1,87.76-87.76Z"/><rect class="cls-5" x="781.68" y="179.23" width="263.24" height="95.7"/><polygon class="cls-2" points="958.5 274.93 958.5 219.95 984.66 274.93 971.58 321.44 958.5 274.93"/><path class="cls-6" d="M961.3,350.42c0,16.48-21.49,29.84-48,29.84s-48-13.36-48-29.84"/><path class="cls-7" d="M867.54,301.38a10.1,10.1,0,0,1,20.19,0"/><path class="cls-7" d="M949.49,301.38a10.1,10.1,0,0,1,20.2,0"/><path class="cls-4" d="M738.82,459.29a101.94,101.94,0,0,0-45-10.46H622.29c-56.65,0-103,46.35-103,103V636h57.94v364.39H738.82V459.29Z"/><path class="cls-9" d="M613.88,448.83H788.69a0,0,0,0,1,0,0v551.59a0,0,0,0,1,0,0H613.88A121.92,121.92,0,0,1,492,878.51V570.76A121.92,121.92,0,0,1,613.88,448.83Z"/><rect class="cls-8" x="492.54" y="634.75" width="84.71" height="364.39"/><rect class="cls-9" x="752.03" y="446.98" width="70.36" height="85.53"/><rect class="cls-1" x="778.34" y="475.82" width="263.24" height="523.31" rx="121.92"/><rect class="cls-2" x="778.34" y="653.43" width="54.97" height="345.7"/><rect class="cls-2" x="986.6" y="653.43" width="54.97" height="345.7"/><circle class="cls-2" cx="663.89" cy="460.46" r="50.57"/><circle class="cls-2" cx="915.53" cy="475.82" r="34.03"/><circle class="cls-8" cx="1034.72" cy="489.99" r="43.46"/><circle class="cls-7" cx="874.3" cy="296.34" r="36.99"/><circle class="cls-7" cx="962.05" cy="294.66" r="36.99"/><line class="cls-7" x1="910.43" y1="293.2" x2="924.92" y2="293.2"/><polygon class="cls-5" points="737.79 446.98 577.24 737.48 577.24 791.31 768.91 446.98 737.79 446.98"/><ellipse class="cls-5" cx="605.99" cy="955.22" rx="470.99" ry="137.31"/><ellipse class="cls-1" cx="605.99" cy="924.18" rx="470.99" ry="137.31"/><path class="cls-10" d="M770.48,882.25c0,18.21-14.76,22.56-33,22.56s-33-4.35-33-22.56V729.07h66Z"/><path class="cls-11" d="M765,871.33c0,15.16-12.3,18.79-27.47,18.79S710,886.49,710,871.33V772.41H765Z"/><path class="cls-10" d="M816.46,909.42c0,18.22-14.76,22.57-33,22.57s-33-4.35-33-22.57V756.25h66Z"/><path class="cls-11" d="M810.94,898.5c0,15.17-12.29,18.79-27.46,18.79S756,913.67,756,898.5V799.58h54.92Z"/><path class="cls-10" d="M433.31,909.42c0,18.22-14.76,22.57-33,22.57s-33-4.35-33-22.57V756.25h65.95Z"/><path class="cls-11" d="M427.8,898.5c0,15.17-12.3,18.79-27.46,18.79s-27.47-3.62-27.47-18.79V799.58H427.8Z"/><path class="cls-12" d="M614.12,707h0a42.77,42.77,0,0,1,42.77,42.77V935a20.27,20.27,0,0,1-20.27,20.27h-45A20.27,20.27,0,0,1,571.35,935V749.77A42.77,42.77,0,0,1,614.12,707Z"/><rect class="cls-12" x="600.42" y="621.77" width="27.38" height="155.26"/><rect class="cls-8" x="600.89" y="597.65" width="12.93" height="24.11"/><rect class="cls-9" x="582.01" y="800.55" width="63.14" height="115.56"/><path class="cls-9" d="M998.13,830.23a46.72,46.72,0,0,1-93.43,0V791.31h93.43Z"/><path class="cls-9" d="M921.88,934.15c0-10.24,13.22-18.53,29.53-18.53S981,923.91,981,934.15Z"/><rect class="cls-9" x="946.58" y="853.59" width="9.67" height="71.3"/><path class="cls-13" d="M992.76,830.23a41.35,41.35,0,0,1-82.69,0"/><path class="cls-9" d="M347.23,785.41a46.72,46.72,0,1,1-93.43,0V746.5h93.43Z"/><path class="cls-9" d="M271,889.34c0-10.24,13.22-18.54,29.53-18.54s29.54,8.3,29.54,18.54Z"/><rect class="cls-9" x="295.68" y="808.77" width="9.67" height="71.3"/><path class="cls-13" d="M341.86,785.41a41.35,41.35,0,1,1-82.69,0"/><path class="cls-9" d="M567.21,739.9a46.72,46.72,0,1,1-93.43,0V701h93.43Z"/><path class="cls-9" d="M491,843.83c0-10.24,13.22-18.54,29.53-18.54S550,833.59,550,843.83Z"/><rect class="cls-9" x="515.66" y="763.26" width="9.67" height="71.3"/><path class="cls-13" d="M561.84,739.9a41.35,41.35,0,1,1-82.69,0"/><circle class="cls-3" cx="770.45" cy="446.45" r="51.94"/><rect class="cls-5" x="519.3" y="117.76" width="279.82" height="227.26" rx="47.49"/><path class="cls-2" d="M627.66,167.84h65.17a87.76,87.76,0,0,1,87.76,87.76v73a80,80,0,0,1-80,80H619.86a80,80,0,0,1-80-80v-73a87.76,87.76,0,0,1,87.76-87.76Z"/><polygon class="cls-2" points="707.88 239.16 707.88 181.21 735.46 239.16 721.67 288.19 707.88 239.16"/><path class="cls-6" d="M710.84,333.32c0,33.26-22.65,60.23-50.6,60.23s-50.59-27-50.59-60.23"/><path class="cls-7" d="M619.06,294.88a10.65,10.65,0,1,1,21.29,0"/><path class="cls-7" d="M687.82,294.88a10.65,10.65,0,1,1,21.29,0"/><path class="cls-5" d="M619.8,271.89H530.11a9.34,9.34,0,0,1-9.32-9.32V196.22a48.12,48.12,0,0,1,48-48h130a9.35,9.35,0,0,1,9.32,9.33v26.09A88.48,88.48,0,0,1,619.8,271.89Z"/><path class="cls-5" d="M664.89,161.54l3.34.58a9.36,9.36,0,0,1,9.33-9.33H743.9a48.12,48.12,0,0,1,48,48l-3.34,39.68a9.36,9.36,0,0,1-9.33,9.33H753.12C704.59,249.78,664.89,210.07,664.89,161.54Z"/><polygon class="cls-5" points="325.53 92.86 286.38 54.26 343.9 74.23 367.83 116.21 325.53 92.86"/><polygon class="cls-5" points="329.73 90.23 323 35.67 355.7 87.03 348.41 113.97 329.73 90.23"/><rect class="cls-7" x="273.9" y="217.91" width="92.07" height="41.44" rx="20.72"/><rect class="cls-7" x="379.58" y="217.91" width="92.07" height="41.44" rx="20.72"/><line class="cls-7" x1="365.97" y1="234.04" x2="379.58" y2="234.04"/></g></g></svg>