<svg xmlns="http://www.w3.org/2000/svg" viewBox="0 0 256.46 536.67"><defs><style>.cls-1{fill:#fff;}</style></defs><title>coffee</title><g id="Ebene_2" data-name="Ebene 2"><g id="Ebene_1-2" data-name="Ebene 1"><path class="cls-1" d="M225.87,146.67c36.26,43.15,40.62,91.34,11.31,137-18.37,28.61-42.11,53.91-64.58,79.71-43.72,50.2-72.8,103.77-42.21,173.32-46.2-13.42-72.6-62.4-65.66-116.75,7.21-56.44,38-99.07,79.68-134.92C186.24,249,227,212.69,225.87,146.67Z"/><path class="cls-1" d="M17,406.23C-5.2,362.67-6.09,320,16.93,279.51,31,254.76,48,230.29,68.58,210.87,130.4,152.5,152.56,84.22,126.47,0c36.26,21.32,63.67,75.12,50.93,119.65-11.58,40.5-31.3,81.85-58,114.12C76.07,286.26,18.33,328.07,17,406.23Z"/></g></g></svg>