<svg xmlns="http://www.w3.org/2000/svg" viewBox="0 0 400 240"><title>Element 1</title><g id="Ebene_2" data-name="Ebene 2"><g id="Ebene_1-2" data-name="Ebene 1"><path d="M0,40V0H70V19.66H90V0h80V19.67h40V0H360V19.66h20V0h20V40H360.35V60H400V240H380V100.36H360V240H350V220.34H330V240H310V140.36H290V240H280V219.72H239.81V140.33H220V240H190V100.36H170V240H140V220.08H120q0-39.84,0-79.75h-19.6v79.61h19.75L120,240H90V140.36H70V240H60V100.24H39.94V220H0V140H20.26V59.83H59.68V40Zm279.76.36H220.25V60.07h39.93v79.68h19.58Zm70,0H290.25V60.07h39.93v79.68h19.58Zm-190.1,79.41V40.4h-19.4v79.37Zm10.55-60H209.7V40.34H170.21Zm-50.63.14V40.34h-19.2V59.89Z"/></g></g></svg>