<?xml version="1.0" encoding="utf-8"?>
<!-- Generator: Adobe Illustrator 23.0.1, SVG Export Plug-In . SVG Version: 6.00 Build 0)  -->
<svg version="1.1" id="Ebene_1" xmlns="http://www.w3.org/2000/svg" xmlns:xlink="http://www.w3.org/1999/xlink" x="0px" y="0px"
	 viewBox="0 0 404 32.7" style="enable-background:new 0 0 404 32.7;" xml:space="preserve">
<style type="text/css">
	.st0{clip-path:url(#SVGID_2_);}
</style>
<g>
	<defs>
		<rect id="SVGID_1_" y="-49.2" width="404" height="191"/>
	</defs>
	<clipPath id="SVGID_2_">
		<use xlink:href="#SVGID_1_"  style="overflow:visible;"/>
	</clipPath>
	<path class="st0" d="M1162.6,136.7H-178V3.8h2.9c13.1,0,19.7,4.4,26.1,8.8c5.8,3.9,11.4,7.7,22.3,7.7c11,0,16.7-3.8,22.7-7.7
		c6.3-4.3,13-8.8,25.7-8.8s19.1,4.4,25.3,8.8c5.7,4,11.2,7.7,22.2,7.7s16.5-3.8,22.2-7.7C-2.4,8.2,4,3.8,16.8,3.8
		c12.7,0,19.1,4.4,25.3,8.8c5.7,4,11.2,7.7,22.2,7.7s16.5-3.8,22.2-7.7c6.2-4.3,12.6-8.8,25.3-8.8s19.1,4.4,25.3,8.8
		c5.7,4,11.2,7.7,22.2,7.7s16.5-3.8,22.2-7.7c6.2-4.3,12.6-8.8,25.3-8.8s19.1,4.4,25.3,8.8c5.7,4,11.2,7.7,22.2,7.7
		c11,0,16.4-3.8,22.2-7.7c6.3-4.3,12.7-8.8,25.5-8.8s19.2,4.4,25.4,8.8c5.7,4,11.2,7.7,22.2,7.7s16.5-3.8,22.2-7.7
		c6.2-4.3,12.6-8.8,25.3-8.8c12.7,0,19.1,4.4,25.3,8.8c5.7,4,11.2,7.7,22.2,7.7s16.5-3.8,22.2-7.7c6.2-4.3,12.6-8.8,25.3-8.8
		c12.8,0,19.2,4.4,25.3,8.8c5.7,4,11.2,7.7,22.2,7.7s16.5-3.8,22.2-7.7c6.2-4.3,12.6-8.8,25.3-8.8c12.7,0,19.1,4.4,25.3,8.8
		c5.7,4,11.2,7.7,22.2,7.7s16.5-3.8,22.2-7.7c6.2-4.3,12.6-8.8,25.3-8.8c12.7,0,19.2,4.4,25.4,8.8c5.8,4,11.2,7.7,22.2,7.7
		s16.4-3.8,22.2-7.7c6.2-4.3,12.6-8.8,25.3-8.8s19.1,4.4,25.3,8.7c5.7,4,11.1,7.7,22.2,7.7c11.1,0,16.5-3.8,22.3-7.7
		c6.2-4.3,12.6-8.7,25.3-8.7s19.1,4.4,25.3,8.8c5.7,4,11.2,7.7,22.2,7.7s16.5-3.8,22.2-7.7c6.2-4.3,12.6-8.7,25.3-8.7
		s19.1,4.4,25.3,8.8c5.7,4,11.2,7.7,22.2,7.7c11,0,16.4-3.7,22.2-7.7c6.2-4.2,12.6-8.7,25.3-8.7c12.8,0,19.2,4.4,25.3,8.8
		c5.7,4,11.2,7.8,22.2,7.8s16.5-3.7,22.2-7.6c6.2-4.2,12.6-8.6,25.3-8.6h2.8L1162.6,136.7z M-172.3,136.7h1328.1L1155,10.4
		c-9.2,0.5-14.2,3.9-19.4,7.5c-6.2,4.2-12.6,8.6-25.3,8.6c-12.7,0-19.1-4.4-25.3-8.8c-5.7-4-11.2-7.8-22.2-7.8s-16.5,3.7-22.2,7.7
		c-6.2,4.2-12.6,8.7-25.3,8.7s-19.1-4.4-25.3-8.8c-5.7-4-11.2-7.7-22.2-7.7s-16.5,3.7-22.2,7.7c-6.2,4.3-12.6,8.7-25.3,8.7
		s-19.1-4.4-25.3-8.8c-5.7-4-11.2-7.7-22.2-7.7s-16.5,3.8-22.2,7.7c-6.2,4.3-12.6,8.8-25.4,8.8s-19.2-4.4-25.3-8.8
		c-5.7-4-11.1-7.7-22.2-7.7c-11,0-16.5,3.8-22.2,7.7c-6.2,4.3-12.6,8.7-25.3,8.7s-19.1-4.4-25.3-8.7c-5.8-4-11.2-7.7-22.3-7.7
		c-11,0-16.5,3.8-22.2,7.7c-6.2,4.3-12.6,8.8-25.3,8.8c-12.7,0-19.1-4.4-25.3-8.8c-5.7-4-11.2-7.7-22.2-7.7s-16.5,3.8-22.2,7.7
		c-6.2,4.3-12.6,8.8-25.3,8.8c-12.7,0-19.1-4.4-25.3-8.8c-5.7-4-11.2-7.7-22.2-7.7s-16.9,3.9-22.6,7.8c-6.2,4.3-12.6,8.8-25.3,8.8
		c-12.7,0-19.1-4.4-25.3-8.8c-5.7-4-11.2-7.7-22.2-7.7s-16.5,3.8-22.2,7.7c-6.2,4.3-12.6,8.8-25.3,8.8c-12.7,0-19.1-4.4-25.3-8.7
		c-5.9-4-11.4-7.8-22.4-7.8s-16.5,3.8-22.2,7.7c-6.2,4.3-12.6,8.7-25.3,8.7c-12.7,0-19.1-4.4-25.3-8.8c-5.7-4-11.2-7.7-22.2-7.7
		s-16.5,3.8-22.2,7.7c-6.2,4.3-12.6,8.8-25.3,8.8s-19.1-4.4-25.3-8.8c-5.7-4-11.2-7.7-22.2-7.7s-16.5,3.8-22.2,7.7
		c-6.2,4.3-12.6,8.8-25.3,8.8S45.2,21.8,39,17.5c-5.7-4-11.2-7.7-22.2-7.7S0.3,13.6-5.4,17.5c-6.2,4.3-12.6,8.8-25.3,8.8
		s-19.1-4.4-25.3-8.8c-5.7-4-11.2-7.7-22.2-7.7c-11.2,0-16.8,3.8-22.8,7.8c-6.4,4.2-13,8.7-25.7,8.7c-12.6,0-19.1-4.3-25.4-8.7
		c-5.5-3.6-10.6-7.2-20.2-7.7V136.7z"/>
	<g class="st0">
		<defs>
			<rect id="SVGID_3_" x="-181" y="64" width="1340.6" height="132.8"/>
		</defs>
		<clipPath id="SVGID_4_">
			<use xlink:href="#SVGID_3_"  style="overflow:visible;"/>
		</clipPath>
	</g>
</g>
</svg>
