<svg xmlns="http://www.w3.org/2000/svg" viewBox="0 0 223 217.25"><title>haribo</title><g id="Ebene_2" data-name="Ebene 2"><g id="Ebene_1-2" data-name="Ebene 1"><path d="M223,122c-.69,3.72-1.39,7.44-2.07,11.16-11.41,63.14-80.12,100.39-138.22,74.92C39.11,189,14.72,136.84,30.1,92.52c11-31.7,34.29-51.1,67.63-55.84,31.86-4.53,58.65,6.35,77.77,32.76,22.86,31.6,15.92,85.69-23.18,105.9-35.94,18.58-82.51,3.31-93.8-37-8.19-29.23,7.17-60.58,34.24-69.75,26.48-9,57.43,5.4,65.56,30.44,5.54,17.06-1.52,39.05-15.46,48.17-15,9.81-36.66,8.43-49.85-3.26-8.87-7.85-11.52-17.77-8.67-29,2.71-10.68,8.13-19.51,19.7-22.43,17.93-4.53,32.57,7.5,30,24.43-1.44,9.55-12.64,15.77-21.41,11.9-4.76-2.1-6.49-8.65-3.35-12.73,1.77-2.3,3.17-1.25,4.91.29a45.81,45.81,0,0,0,6,3.88c.61-2.78,2-5.64,1.66-8.31-.7-6.16-6.1-9.18-12.7-7.77C97.55,106.68,91.73,119,97.42,129.44c4.78,8.82,12.35,13.45,22.42,13.2,11.35-.28,19.07-6.49,23.79-16.35,9.42-19.71-3.18-43.05-24.8-46.36C86.71,75,62.63,103.61,72.88,134.49c9.31,28,38.77,40.64,67.51,28.87,25.74-10.54,38.26-34.82,32.23-62.53-7.18-32.94-34.82-52-68.47-49.43-35.42,2.68-69.28,38.78-61.8,83.37,7.19,42.87,48.3,66.85,86.75,62.67,47.14-5.12,79.61-46.69,75.57-94-3.73-43.79-36.7-74.82-77.51-82.36-61.54-11.36-115.5,32-117.07,94.55-1,39.42,13.28,72.5,43.75,98.12a6.85,6.85,0,0,1,2.52,3.51c-1.43-.73-2.91-1.38-4.29-2.21C23.69,197.94,8.26,172.16,2,140.25c-.74-3.74-1.33-7.5-2-11.25V108c1.66-8.44,2.63-17.08,5.09-25.27C16.8,43.75,40.9,16.46,80.7,4.62,87.64,2.56,94.89,1.51,102,0h22a9.06,9.06,0,0,0,2.25.84c46.44,4.63,83.87,45.1,93,82.19,1.46,5.94,2.5,12,3.74,18Z"/></g></g></svg>