<svg xmlns="http://www.w3.org/2000/svg" viewBox="0 0 368.12 342"><title>Element 22</title><g id="Ebene_2" data-name="Ebene 2"><g id="Ebene_1-2" data-name="Ebene 1"><path d="M0,0V342H368.12V0ZM71.83,290.64l-14.21-2v.21l9.09,12.94-5.9,3.72-6-14.75h-.19l-5.9,14.85L42.94,302l9.18-13.26v-.22l-14.6,2.13v-7.22l14.6,1.91v-.21l-9.28-12.73,6.09-3.82,5.79,14.85h.2l6.28-14.95,5.51,3.81-9.18,13v.21l14.3-2ZM82.24,130.3l-14.2-2v.21l9.08,12.94-5.9,3.72-6-14.75H65l-5.9,14.85-5.79-3.6,9.18-13.26v-.22L47.94,130.3v-7.22L62.53,125v-.21l-9.28-12.73,6.09-3.82,5.8,14.85h.19l6.28-15,5.51,3.81-9.18,13v.21l14.3-2ZM96.82,38.67l-14.21-2v.21L91.7,49.81l-5.9,3.71-6-14.74h-.19l-5.9,14.85L67.92,50,77.1,36.76v-.21L62.51,38.67V31.46L77.1,33.37v-.21L67.83,20.43l6.08-3.82,5.8,14.85h.2l6.28-15,5.51,3.82L82.52,33.26v.21l14.3-2Zm46.85,169.71-14.21-2v.21l9.09,12.94-5.9,3.71-6-14.74h-.19l-5.9,14.85-5.79-3.61L124,206.47v-.21l-14.6,2.12v-7.21l14.6,1.91v-.21l-9.28-12.73,6.09-3.82,5.79,14.85h.2l6.28-15,5.51,3.82L129.37,203v.22l14.3-2ZM179.12,58.53l14.59,1.91v-.21L184.44,47.5l6.09-3.82,5.79,14.85h.2l6.28-15,5.51,3.82-9.18,12.94v.22l14.3-2v7.21l-14.21-2v.21l9.09,12.94-5.9,3.71-6-14.74h-.19l-5.9,14.85-5.8-3.61,9.18-13.26v-.21l-14.59,2.12ZM216.55,262.7l-14.2-2.14v.22l9.08,13.74-5.9,3.94-6-15.65h-.19l-5.89,15.76-5.8-3.82,9.18-14.08v-.23l-14.59,2.26V255l14.59,2v-.23l-9.28-13.51,6.09-4.06,5.8,15.77h.19l6.28-15.88,5.51,4.05L202.25,257v.23l14.3-2.14ZM231.13,148l-14.21-2v.21L226,159.13l-5.9,3.72-6-14.75h-.19L208,163l-5.8-3.6,9.18-13.26v-.22L196.82,148v-7.22l14.59,1.91v-.21l-9.27-12.73,6.09-3.82L214,140.78h.2l6.28-15,5.51,3.81-9.18,13v.21l14.3-2Zm50.23,35.29L290.54,170v-.21L276,171.94v-7.21l14.59,1.91v-.21l-9.27-12.73,6.08-3.82,5.8,14.85h.2l6.28-15,5.51,3.82L296,166.53v.21l14.3-2v7.21l-14.21-2v.21l9.09,12.94-5.9,3.71-6-14.74h-.19l-5.9,14.85Zm40.35,99-14.21-2v.21l9.09,12.95-5.9,3.71-6-14.75h-.19l-5.9,14.85-5.79-3.6L302,280.4v-.21l-14.6,2.12v-7.22L302,277v-.21l-9.28-12.73,6.09-3.82,5.8,14.85h.19l6.28-14.95,5.51,3.82-9.18,12.94v.21l14.3-2ZM333.16,76.16l-14.2-2v.21L328,87.29,322.15,91l-6-14.75H316l-5.89,14.85-5.8-3.6,9.18-13.26V74l-14.59,2.13V68.94l14.59,1.91v-.21l-9.28-12.73,6.09-3.82,5.8,14.85h.19l6.28-15L328,57.8l-9.18,12.94V71l14.3-2Z"/></g></g></svg>